<svg version="1.1" xmlns="http://www.w3.org/2000/svg" viewBox="0 0 3620.9168231501967 3591.8687426338533" width="3620.9168231501967" height="3591.8687426338533">
  <!-- svg-source:excalidraw -->
  
  <defs>
    <style>
      @font-face {
        font-family: "Virgil";
        src: url("https://excalidraw.com/Virgil.woff2");
      }
      @font-face {
        font-family: "Cascadia";
        src: url("https://excalidraw.com/Cascadia.woff2");
      }
    </style>
  </defs>
  <rect x="0" y="0" width="3620.9168231501967" height="3591.8687426338533" fill="#ffffff"></rect><g stroke-linecap="round" transform="translate(454.156411085387 1630.2394910023763) rotate(0 206.39999389648438 385.6000061035156)"><path d="M0.55 0.79 C99.01 0.29, 198.14 0.23, 413.87 0.91 M-0.25 0.54 C142.39 -1.25, 284.88 -2.14, 413.19 -0.34 M412.97 0.29 C411.88 281.29, 411.44 564.37, 413.13 771.19 M413.13 -0.17 C411.52 186.95, 411.16 373.31, 412.44 771.31 M412.33 772.05 C291.23 771.91, 168.2 772.25, -0.27 770.54 M412.99 771.67 C290.87 768.95, 167.49 769.62, 0.53 771.41 M0.7 771.62 C-2.04 518.23, -1.79 265.49, -0.13 -0.06 M-0.26 771.47 C-1.16 549.57, -1.18 328.53, 0.22 0" stroke="#000000" stroke-width="1" fill="none"></path></g><g transform="translate(506.95639887835574 1741.2395215199545) rotate(0 148.75715255737305 46.80000305175781)"><text x="0" y="68.60000610351565" font-family="Virgil, Segoe UI Emoji" font-size="66.85714721679686px" fill="#000000" text-anchor="start" style="white-space: pre;" direction="ltr">Kingz游戏</text></g><g transform="translate(569.5563795505564 2217.772907750423) rotate(0 115 32.5)"><text x="0" y="48" font-family="Virgil, Segoe UI Emoji" font-size="45.52382696242557px" fill="#000000" text-anchor="start" style="white-space: pre;" direction="ltr">开始新对局</text></g><g stroke-linecap="round" transform="translate(538.0833666566373 2203.3506573357718) rotate(0 82.85714285714283 43.42856270926336)"><path d="M-0.52 -1.86 C62.42 -0.24, 125.76 -2.26, 165.95 -0.41 M-0.06 -0.76 C52.77 -1.72, 107.17 0.02, 166.08 0.66 M165.57 1.18 C166.9 31.07, 167.04 62.66, 166.94 87.92 M165.17 -0.84 C165.89 26.94, 166.23 53.99, 165.48 86.01 M165.21 85.7 C109.1 89.57, 52.2 88.84, 2 86.37 M165.5 85.93 C115.28 86.31, 66.8 86.2, 0.91 86.73 M-1.03 85.18 C-0.58 62.47, -1.35 32.45, -1.95 1.14 M-0.05 86.08 C-1.47 69.17, -1.76 50.41, -0.93 -0.43" stroke="#000000" stroke-width="1" fill="none"></path></g><g stroke-linecap="round"><g transform="translate(711.6072314027308 2281.8226469483657) rotate(0 173.5278697231584 -27.908079862028217)"><path d="M-0.43 0.15 C57.02 -9.07, 287.34 -44.94, 345.25 -54.38 M1.54 -0.81 C59.32 -10.44, 289.96 -46.81, 347.49 -55.97" stroke="#000000" stroke-width="1" fill="none"></path></g><g transform="translate(711.6072314027308 2281.8226469483657) rotate(0 173.5278697231584 -27.908079862028217)"><path d="M321.5 -42.92 C331.84 -44.88, 337.33 -51.1, 346.5 -54.96 M320.36 -41.47 C327.97 -45.67, 334.12 -47.67, 347.11 -56.4" stroke="#000000" stroke-width="1" fill="none"></path></g><g transform="translate(711.6072314027308 2281.8226469483657) rotate(0 173.5278697231584 -27.908079862028217)"><path d="M318.29 -63.18 C329.9 -58.17, 336.5 -57.42, 346.5 -54.96 M317.15 -61.74 C325.42 -60.99, 332.35 -58.06, 347.11 -56.4" stroke="#000000" stroke-width="1" fill="none"></path></g></g><g transform="translate(889.2263680313813 2212.3507477985922) rotate(0 31 14)"><text x="0" y="21" font-family="Virgil, Segoe UI Emoji" font-size="20px" fill="#000000" text-anchor="start" style="white-space: pre;" direction="ltr">点击后</text></g><g stroke-linecap="round" transform="translate(1959.9405411212715 1643.9224710099716) rotate(0 235.42859758649536 398.2857186453682)"><path d="M0.66 -0.55 C184.84 -0.58, 369.96 0.73, 471.09 -0.8 M-0.11 -0.35 C164.06 1.52, 328.08 2.26, 471.04 0.21 M471.55 0.35 C474.36 274.58, 473.31 548.74, 470.16 796.45 M470.98 0.08 C472.13 273.23, 471.7 547.14, 470.83 796.23 M471.18 796.69 C296.33 796.83, 121.3 796.78, 0.09 796.79 M470.89 796.14 C311.07 798.75, 151.86 798.7, -0.2 796.84 M-0.43 796.53 C-0.19 541.88, 0.45 287.57, -0.78 -0.7 M-0.36 796.62 C0.72 482.24, 0.92 168.22, -0.22 -0.02" stroke="#000000" stroke-width="1" fill="none"></path></g><g transform="translate(2057.083398264129 1723.8441063696346) rotate(0 135.00002615792414 60.96775374873994)"><text x="0" y="87.93550749747986" font-family="Virgil, Segoe UI Emoji" font-size="87.09679106962847px" fill="#000000" text-anchor="start" style="white-space: pre;" direction="ltr">等待中</text></g><g stroke-linecap="round" transform="translate(1968.4642896099256 2533.636686969793) rotate(0 254.00009155273415 511.99996948242165)"><path d="M0.1 -0.3 C152.73 -0.41, 305.73 -0.66, 507.92 0.03 M-0.21 -0.25 C124.68 1.61, 249.86 2.01, 508 -0.02 M507.52 0.62 C508.89 236.42, 509.24 471.27, 508.51 1024.75 M508.19 -0.08 C508.68 263.81, 508.48 527.54, 508.02 1024.03 M508.79 1023.58 C402.04 1026.64, 294.15 1025.84, -0.31 1024.69 M508.07 1024.18 C308.23 1024.05, 109.46 1023.89, -0.35 1023.88 M-0.54 1023.63 C-2.17 614.77, -1.9 204.89, 0.67 -0.09 M-0.13 1023.77 C-2.2 699.09, -2.4 373.79, -0.32 0.2" stroke="#000000" stroke-width="1" fill="none"></path></g><g transform="translate(2080.4644116802383 2627.4414235956506) rotate(0 134.99993896484352 46.09754013433678)"><text x="0" y="68.19508026867364" font-family="Virgil, Segoe UI Emoji" font-size="65.85362876333832px" fill="#000000" text-anchor="start" style="white-space: pre;" direction="ltr">匹配失败</text></g><g stroke-linecap="round" transform="translate(2016.4644727153943 2917.636625934637) rotate(0 218.0000305175779 99.99999999999977)"><path d="M0.71 -0.49 C135.24 -2.41, 270.78 -2.02, 435.79 -0.13 M0.23 0.34 C117.01 -1.24, 233.68 -1.49, 435.82 -0.15 M437.62 -0.12 C436.62 58.04, 436.51 113.65, 436.72 198.53 M436.25 0.86 C434.44 41.11, 435.16 81.29, 436.33 199.54 M435.03 199.13 C265.24 199.3, 95.86 198.81, 0.53 199.54 M436.17 200.4 C292.53 198.86, 148.8 197.93, 0.15 199.53 M-0.72 198.19 C-0.45 130.84, 2.14 60.51, 0.36 -0.35 M-0.51 200.44 C0.3 125.71, 0 51.47, 0.15 -0.07" stroke="#000000" stroke-width="1" fill="none"></path></g><g transform="translate(2090.4644116802383 2977.6365648994806) rotate(0 158.14285714285643 53.99999999999977)"><text x="0" y="79.99999999999945" font-family="Virgil, Segoe UI Emoji" font-size="77.14285714285673px" fill="#000000" text-anchor="start" style="white-space: pre;" direction="ltr">继续等！</text></g><g stroke-linecap="round" transform="translate(2020.464411680238 3257.6366259346364) rotate(0 208.0000305175779 91.99996948242188)"><path d="M-0.88 0.34 C123.76 -0.44, 245.34 -1.4, 415.23 -0.48 M-0.53 0.33 C99.66 -0.44, 199.09 -0.47, 415.93 0.1 M415.17 0.88 C418.28 51.04, 415.64 103.69, 415.66 184.14 M416.32 -0.13 C416.89 64.23, 416.34 129.63, 415.28 184.41 M416.02 183.73 C253.63 182.66, 92.36 181.97, 0.87 183.08 M415.67 184.25 C325.97 184.91, 236.45 184.55, -0.23 184.34 M-0.14 183.38 C-1.75 147.33, 0.81 109.67, 0.35 1.01 M0.34 183.37 C-0.3 125.23, -0.12 68.39, -0.12 0.27" stroke="#000000" stroke-width="1" fill="none"></path></g><g transform="translate(2116.4641675396133 3315.636748004949) rotate(0 128.85714285714243 43.99999999999977)"><text x="0" y="63.99999999999966" font-family="Virgil, Segoe UI Emoji" font-size="62.85714285714257px" fill="#000000" text-anchor="start" style="white-space: pre;" direction="ltr">跟电脑玩</text></g><g stroke-linecap="round" transform="translate(1064.7977297547816 1650.3983286992386) rotate(0 192.00001307896207 389.7142682756696)"><path d="M-1.19 1.05 C142.46 0.54, 286.92 -0.31, 383.7 0.17 M0.12 -0.5 C125.34 -2.79, 249.73 -1.81, 384.06 -0.56 M383.71 0.39 C384.46 281.43, 385.3 560.73, 384.58 779.14 M384.07 0.3 C385.69 289.55, 385.88 579.03, 383.9 779.32 M383.76 779.04 C276.35 778.24, 170.39 779.13, -0.95 779.15 M383.55 779.91 C246.67 780.11, 109.28 780.28, -0.11 779.49 M-0.5 779.97 C-0.78 548.95, 0.17 320.04, 0.07 0.42 M0.35 779.35 C1.92 608.98, 1.89 438, 0.08 -0.17" stroke="#000000" stroke-width="1" fill="none"></path></g><g stroke-linecap="round" transform="translate(1153.17868504217 2138.0177250906077) rotate(0 112.76189168294263 50.28575352260049)"><path d="M1.5 1.58 C80.3 -2.42, 158.46 -0.84, 226.39 0.62 M0.24 -0.82 C62.17 0.38, 123.68 0.12, 224.81 0.69 M225.04 1.45 C226.62 25.37, 223.97 51.72, 224.36 99.84 M225.73 0.51 C226.55 34.95, 224.78 69.95, 225.62 100.41 M225.08 98.98 C141.5 100.97, 58.26 99.24, 0.21 100.22 M225.47 99.92 C152.13 100.7, 80.14 102.19, 0.31 101.14 M-0.14 101.76 C0.65 63.37, 0.79 26.7, 1.22 1.07 M-0.54 99.73 C-1.49 69.51, -1.15 38.56, -0.23 -0.85" stroke="#000000" stroke-width="1" fill="none"></path></g><g transform="translate(1185.5596083587623 2156.7478815050695) rotate(0 80 28)"><text x="0" y="42" font-family="Virgil, Segoe UI Emoji" font-size="39.512195121951194px" fill="#000000" text-anchor="start" style="white-space: pre;" direction="ltr">匹配玩家</text></g><g stroke-linecap="round" transform="translate(1108.7977755311497 1824.3030077705737) rotate(0 141.99999491373694 58.66668701171875)"><path d="M0.44 1.27 C102 2.21, 201.9 -0.02, 284.16 0.76 M-0.05 0.68 C95.11 0.26, 189.38 1.34, 283.83 -0.49 M283.28 -0.95 C282.56 31.21, 285.68 62.98, 282.41 118.59 M283.13 -0.22 C283.38 33.17, 283.96 66.5, 284.66 117.02 M283.47 118.8 C215.42 116.44, 145.53 117.36, -0.05 118.29 M284.16 117.54 C215.87 116.06, 147.64 115.34, -0.58 117.14 M-0.25 115.51 C-1.44 73.89, -2.23 31.39, -1.2 1.5 M-0.77 116.65 C-0.47 89.04, -1.53 61.27, 0.6 -0.12" stroke="#000000" stroke-width="1" fill="none"></path></g><g transform="translate(1164.7977857036758 1861.9696744372404) rotate(0 81 27.65853658536585)"><text x="0" y="41.31707317073168" font-family="Virgil, Segoe UI Emoji" font-size="39.51219512195117px" fill="#000000" text-anchor="start" style="white-space: pre;" direction="ltr">跟电脑玩</text></g><g stroke-linecap="round"><g transform="translate(1396.2573549042838 2222.0291598373583) rotate(0 269.28537378926933 -33.739593904694345)"><path d="M-0.77 0.29 C89.07 -10.92, 449.4 -56.28, 539.34 -67.77 M1.03 -0.61 C90.72 -11.57, 449.1 -55, 538.61 -66.19" stroke="#000000" stroke-width="1" fill="none"></path></g><g transform="translate(1396.2573549042838 2222.0291598373583) rotate(0 269.28537378926933 -33.739593904694345)"><path d="M512.37 -51.86 C520.74 -56.87, 527.94 -62.58, 539.6 -66.17 M511.4 -52.62 C519.84 -56.55, 527.32 -60.59, 539.4 -67.16" stroke="#000000" stroke-width="1" fill="none"></path></g><g transform="translate(1396.2573549042838 2222.0291598373583) rotate(0 269.28537378926933 -33.739593904694345)"><path d="M509.86 -72.23 C518.97 -70.6, 526.98 -69.69, 539.6 -66.17 M508.9 -72.99 C517.83 -71.48, 525.99 -70.06, 539.4 -67.16" stroke="#000000" stroke-width="1" fill="none"></path></g></g><g stroke-linecap="round"><g transform="translate(1954.6311088644823 2945.6364733467453) rotate(0 -114.54516252741303 -262.3961070669721)"><path d="M0.66 -0.67 C-37.35 -38.1, -225.27 -135.89, -228.51 -223.51 C-231.75 -311.13, -54.05 -476.06, -18.79 -526.39 M-0.45 1.6 C-38.62 -35.68, -227.08 -137.57, -229.72 -225.38 C-232.37 -313.19, -51.3 -474.88, -16.31 -525.28" stroke="#000000" stroke-width="1" fill="none"></path></g><g transform="translate(1954.6311088644823 2945.6364733467453) rotate(0 -114.54516252741303 -262.3961070669721)"><path d="M-28.36 -498.19 C-23.81 -506.05, -22.4 -510.29, -15.44 -527.2 M-26.29 -496.8 C-23.91 -506.38, -20.22 -516.23, -16.93 -524.43" stroke="#000000" stroke-width="1" fill="none"></path></g><g transform="translate(1954.6311088644823 2945.6364733467453) rotate(0 -114.54516252741303 -262.3961070669721)"><path d="M-43.76 -511.75 C-35.05 -516.14, -29.6 -516.82, -15.44 -527.2 M-41.69 -510.36 C-34.23 -515.42, -25.57 -520.9, -16.93 -524.43" stroke="#000000" stroke-width="1" fill="none"></path></g></g><g stroke-linecap="round"><g transform="translate(2454.6311088644825 2251.6364580879567) rotate(0 145.871598547252 283.142324636178)"><path d="M-0.78 -1.12 C47.78 56.21, 286.35 250.43, 292.4 344.96 C298.45 439.49, 78.41 529.38, 35.53 566.06 M1.01 0.9 C49.35 58.27, 286.08 251.54, 291.66 345.95 C297.24 440.37, 77.3 530.79, 34.51 567.41" stroke="#000000" stroke-width="1" fill="none"></path></g><g transform="translate(2454.6311088644825 2251.6364580879567) rotate(0 145.871598547252 283.142324636178)"><path d="M51.34 544.62 C44.39 552.16, 38.95 560.6, 32.92 565.71 M52.29 543.08 C48.63 548.76, 43.22 554.22, 33.59 567.24" stroke="#000000" stroke-width="1" fill="none"></path></g><g transform="translate(2454.6311088644825 2251.6364580879567) rotate(0 145.871598547252 283.142324636178)"><path d="M62.04 562.13 C50.8 562.79, 41.19 564.42, 32.92 565.71 M62.99 560.59 C56.86 561.92, 48.85 563.13, 33.59 567.24" stroke="#000000" stroke-width="1" fill="none"></path></g></g><g transform="translate(2634.631108864482 2398.6363665352224) rotate(0 488.14285714285734 34)"><text x="0" y="49.000000000000014" font-family="Virgil, Segoe UI Emoji" font-size="48.57142857142857px" fill="#000000" text-anchor="start" style="white-space: pre;" direction="ltr">服务器返回匹配失败或者客户端决定不再等待</text></g><g stroke-linecap="round" transform="translate(2029.1310020529586 465.6361681709659) rotate(0 264.9282371536884 452.00004577636696)"><path d="M0.39 0.59 C188.15 1.92, 376.68 1.85, 530.1 0.61 M0.29 0.26 C180.98 -0.52, 362.35 -0.38, 529.5 0.18 M530.63 -0.5 C532.44 330.84, 533.03 660.88, 529.68 903.74 M529.92 -0.06 C532.22 239.33, 532.23 478.17, 530.08 903.85 M530.37 904.57 C328.85 902.24, 126.84 901.82, 0.22 903.45 M529.95 904.19 C414.55 903.05, 299.6 902.72, -0.27 904.18 M-0.4 904.15 C-2.49 630.65, -1.94 357.34, -0.64 0.12 M0 903.75 C2.52 591.43, 2.8 279.26, -0.26 0.11" stroke="#000000" stroke-width="1" fill="none"></path></g><g stroke-linecap="round" transform="translate(2057.2458188836194 664.6027799717135) rotate(0 241.13875454706317 236.81342032302788)"><path d="M-0.7 0.22 C148.52 0.13, 295.99 0.3, 482.09 0.32 M-0.33 0.27 C177.12 0.02, 354.09 0.06, 482.69 0.25 M482.51 0.27 C481.66 101.68, 482.44 202.29, 482.43 473.73 M482.01 -0.08 C484.12 167.63, 483.74 335.65, 482.44 473.76 M482.39 473.4 C307.22 473.93, 130.98 473.79, 0.2 473.72 M482.5 474 C375.93 473.56, 269.87 473.84, -0.43 473.91 M-0.32 473.64 C0.66 324.92, 1.42 176.95, 0.88 0.09 M0.18 473.19 C0.82 332.6, 0.89 190.81, 0.36 0.07" stroke="#000000" stroke-width="1" fill="none"></path></g><g stroke-linecap="round" transform="translate(2055.0831723965207 508.8897579103434) rotate(0 240.05743130351357 57.31103940454557)"><path d="M0.08 -0.01 C177.54 -1.64, 356.26 -2.92, 479.75 0.67 M0.07 0.14 C131.68 -1.28, 263.5 -1.41, 480.54 0.15 M479.11 1.86 C479.93 29.85, 479.37 58.24, 480.08 114.85 M481.07 -0.01 C479.24 22.51, 479.4 46.16, 479.51 115.29 M479.59 114.92 C348.88 116.38, 219.63 116.36, -0.52 115.16 M479.88 114.67 C344.75 115.74, 210.24 115.33, -0.29 115.03 M-0.96 113.3 C-0.29 92.48, -1.52 67.47, -1.1 0.6 M-0.16 115.25 C0.54 83.46, 0.75 49.69, 0.55 0.97" stroke="#000000" stroke-width="1" fill="none"></path></g><g transform="translate(2076.7098847665343 529.9759819079004) rotate(0 225.22723900154824 38.928164765699705)"><text x="0" y="56.85632953139941" font-family="Virgil, Segoe UI Emoji" font-size="55.61166395099953px" fill="#000000" text-anchor="start" style="white-space: pre;" direction="ltr">此处显示一些信息</text></g><g transform="translate(2115.638181531714 789.4975203441666) rotate(0 189.0799178966588 51.90429118731805)"><text x="0" y="75.80858237463612" font-family="Virgil, Segoe UI Emoji" font-size="74.14898741045441px" fill="#000000" text-anchor="start" style="white-space: pre;" direction="ltr">此处是棋盘</text></g><g stroke-linecap="round"><g transform="translate(2449.131154640849 1808.6361986885427) rotate(0 130.47668334302648 -207.9859973281156)"><path d="M-0.64 -1 C42.7 -41.01, 242.74 -171.85, 260.17 -241.19 C277.6 -310.54, 129.88 -388.11, 103.92 -417.06 M1.22 1.09 C44.41 -38.72, 242.32 -170.72, 259.31 -240.28 C276.3 -309.85, 128.92 -386.87, 103.18 -416.31" stroke="#000000" stroke-width="1" fill="none"></path></g><g transform="translate(2449.131154640849 1808.6361986885427) rotate(0 130.47668334302648 -207.9859973281156)"><path d="M130.03 -406.7 C120.97 -409.92, 112.36 -412.07, 104.99 -415.96 M131.25 -406.48 C120.29 -409.9, 110.57 -414.98, 102.23 -416.92" stroke="#000000" stroke-width="1" fill="none"></path></g><g transform="translate(2449.131154640849 1808.6361986885427) rotate(0 130.47668334302648 -207.9859973281156)"><path d="M117.37 -390.55 C112.38 -398.7, 107.69 -405.85, 104.99 -415.96 M118.59 -390.33 C112.48 -399.7, 107.51 -410.83, 102.23 -416.92" stroke="#000000" stroke-width="1" fill="none"></path></g></g><g transform="translate(2701.1309715353805 1427.6360766182302) rotate(0 158.1428571428571 54)"><text x="0" y="80" font-family="Virgil, Segoe UI Emoji" font-size="77.14285714285718px" fill="#000000" text-anchor="start" style="white-space: pre;" direction="ltr">匹配成功</text></g><g stroke-linecap="round"><g transform="translate(1479.2773826855434 1735.59013116306) rotate(0 273.6382947355245 -243.49347027142937)"><path d="M-0.09 0.18 C58.39 -14.39, 258.93 -5.85, 350.43 -87.07 C441.92 -168.29, 515.75 -420.76, 548.88 -487.17 M-1.6 -0.77 C56.84 -15.75, 258.26 -8.12, 349.91 -89.01 C441.57 -169.91, 514.99 -419.72, 548.3 -486.14" stroke="#000000" stroke-width="1" fill="none"></path></g><g transform="translate(1479.2773826855434 1735.59013116306) rotate(0 273.6382947355245 -243.49347027142937)"><path d="M547.58 -454.77 C548.01 -463.32, 546.81 -470.54, 550.15 -484.43 M547.4 -455.92 C548.25 -467.03, 548.44 -480.74, 549.2 -485.17" stroke="#000000" stroke-width="1" fill="none"></path></g><g transform="translate(1479.2773826855434 1735.59013116306) rotate(0 273.6382947355245 -243.49347027142937)"><path d="M528.55 -462.44 C533.93 -468.99, 537.65 -474.23, 550.15 -484.43 M528.37 -463.59 C536.66 -471.69, 544.37 -482.37, 549.2 -485.17" stroke="#000000" stroke-width="1" fill="none"></path></g></g><g transform="translate(1634.4643048687144 1584.4840400002713) rotate(0 148.54470592869097 50.72258251223593)"><text x="0" y="74.44516502447186" font-family="Virgil, Segoe UI Emoji" font-size="72.46083216033703px" fill="#000000" text-anchor="start" style="white-space: pre;" direction="ltr">跟电脑玩</text></g><g stroke-linecap="round" transform="translate(366.46457952691816 616.9696337471369) rotate(0 234.00001525878895 403.9999389648433)"><path d="M0.85 -0.11 C102.84 2.07, 205.61 1.25, 467.31 -0.52 M-0.31 -0.21 C101.92 -1.56, 203.88 -0.77, 468.36 0.4 M468.02 -0.77 C468.74 242.94, 468.25 484.97, 468.19 808.32 M467.84 0.14 C468.27 310.2, 468.31 620.25, 468.34 807.99 M467.36 807.9 C345.91 806.73, 222.7 806.72, -0.75 808.26 M468.08 807.65 C281.43 807.41, 94.72 806.77, -0.44 808.4 M0.24 807.55 C-1.26 512.68, -0.93 217.12, 0.8 -0.42 M0.25 807.61 C2.1 631.85, 2.14 455.62, -0.4 -0.09" stroke="#000000" stroke-width="1" fill="none"></path></g><g transform="translate(434.46455918186615 686.1482404782721) rotate(0 153.00004577636724 52.24391806997903)"><text x="0" y="76.48783613995806" font-family="Virgil, Segoe UI Emoji" font-size="74.63416867139865px" fill="#000000" text-anchor="start" style="white-space: pre;" direction="ltr">游戏结束</text></g><g transform="translate(414.4644065939755 966.6363207588552) rotate(0 182.28555297851557 31.506144959249582)"><text x="0" y="46.012289918499185" font-family="Virgil, Segoe UI Emoji" font-size="45.00877851321372px" fill="#000000" text-anchor="start" style="white-space: pre;" direction="ltr">你赢了或者你输了</text></g><g stroke-linecap="round" transform="translate(454.46455918186615 1179.6359545479177) rotate(0 141.99996948242176 68.00003051757812)"><path d="M0.71 -0.61 C60.8 0.25, 121.26 2.15, 283.23 -1.47 M-0.53 -0.71 C112.36 2.09, 224.09 1.16, 283.84 0.28 M282.87 -1.05 C284.45 37.12, 283.38 79.3, 282.92 137.05 M284.81 0.35 C285.2 28.9, 285.3 58.87, 283.02 136.26 M283.66 136.15 C197.15 136.49, 108.65 136.47, 0.48 136.73 M283.6 136.44 C201.71 136.16, 118.74 136.73, 0.5 135.94 M1.47 136.9 C2.78 91.6, 1.69 46.75, 1.2 -0.27 M-0.5 135.07 C1.21 90.44, 0.37 46.77, 0.6 -0.08" stroke="#000000" stroke-width="1" fill="none"></path></g><g transform="translate(530.4646202170222 1198.6361376533864) rotate(0 65.99999999999966 43.99999999999977)"><text x="0" y="63.99999999999953" font-family="Virgil, Segoe UI Emoji" font-size="62.85714285714253px" fill="#000000" text-anchor="start" style="white-space: pre;" direction="ltr">返回</text></g><g stroke-linecap="round"><g transform="translate(604.8515391162904 1438.9694506416672) rotate(0 -32.50536105925812 86.98320019755604)"><path d="M0.34 -0.4 C-10.51 28.7, -53.42 145.01, -64.38 174.39 M-0.94 -1.65 C-12.02 27.61, -54.98 146.33, -65.35 175.62" stroke="#000000" stroke-width="1" fill="none"></path></g><g transform="translate(604.8515391162904 1438.9694506416672) rotate(0 -32.50536105925812 86.98320019755604)"><path d="M-66.14 145.56 C-66.47 154.55, -63.9 165.38, -65.51 175.71 M-64.49 145.92 C-66.17 155.58, -64.44 167.65, -65.6 175.54" stroke="#000000" stroke-width="1" fill="none"></path></g><g transform="translate(604.8515391162904 1438.9694506416672) rotate(0 -32.50536105925812 86.98320019755604)"><path d="M-46.83 152.49 C-54.1 159.04, -58.48 167.37, -65.51 175.71 M-45.17 152.85 C-53.8 160.15, -59.02 169.72, -65.6 175.54" stroke="#000000" stroke-width="1" fill="none"></path></g></g><g stroke-linecap="round" transform="translate(2069.131154640849 1201.6360766182297) rotate(0 105.99990844726551 60)"><path d="M-0.63 -1.26 C47.6 3, 98.04 0.2, 213.55 0.99 M-0.26 0.15 C58.29 0.47, 118.07 -0.33, 212.46 0.31 M211.72 1 C212.42 45.64, 215.14 87.38, 211.69 121.2 M212.13 -0.87 C212.31 29.44, 211.72 56.79, 212.46 119.67 M211.43 120.96 C156.4 119.62, 103.6 120.49, -0.73 120.38 M212.33 119.32 C132.61 119.78, 55.17 119, -0.63 120.84 M-0.96 119.99 C1.11 82.85, -0.63 49.15, -0.84 -1.22 M-0.72 119.02 C-0.88 93.49, -1.37 68.07, -0.97 0.88" stroke="#000000" stroke-width="1" fill="none"></path></g><g stroke-linecap="round" transform="translate(2353.131093605693 1189.6361071358078) rotate(0 83.99993896484375 70)"><path d="M-1.74 0.27 C58.78 2.11, 122.92 0.93, 167.59 0.91 M0.66 -0.33 C45.36 0.38, 88.71 1.31, 167.58 -0.42 M166.96 0.76 C167.44 43.5, 170.69 91.43, 167.93 138.57 M168.31 -0.48 C167.95 55.93, 167.21 110.39, 168.23 139.58 M166.02 138.55 C125.91 142.12, 87.39 141.15, 1.45 138.07 M167.95 140.05 C102.35 139.05, 38.15 137.95, 0.97 140.33 M-2 140.58 C-1.41 99.83, -3.06 57.67, -0.18 -1.87 M0.81 139.68 C0.57 102.61, 0.45 64.63, 0.71 -0.15" stroke="#000000" stroke-width="1" fill="none"></path></g><g transform="translate(2109.1311546408497 1236.6358629951828) rotate(0 79.71421813964844 35.999969482421875)"><text x="0" y="51.99993896484375" font-family="Virgil, Segoe UI Emoji" font-size="51.42852783203126px" fill="#000000" text-anchor="start" style="white-space: pre;" direction="ltr">不玩了</text></g><g transform="translate(2369.131154640849 1240.6359545479172) rotate(0 84.14322880336226 38.00016784667969)"><text x="0" y="56.000335693359375" font-family="Virgil, Segoe UI Emoji" font-size="54.28595406668526px" fill="#000000" text-anchor="start" style="white-space: pre;" direction="ltr">先退出</text></g><g stroke-linecap="round" transform="translate(534.3806663595997 2315.535734821354) rotate(0 101.50001525878906 36.50001525878906)"><path d="M-0.35 -0.18 C53.53 -1.57, 103.02 -2.76, 203.29 0.59 M0.63 -0.43 C51.78 -1.47, 103.07 -1.51, 202.21 -0.79 M203.54 0.99 C203.69 23.4, 201.98 49.71, 202.55 72.31 M202.39 0.01 C202.51 27.03, 202.12 52.42, 202.18 72.58 M203.18 72.47 C148.63 74.89, 92.67 73.07, -0.57 74.61 M202.86 73.34 C136.2 74.56, 70.64 73.82, 0.33 73.37 M0.84 72.67 C1.31 57.96, 0.11 41.5, 1.54 1.1 M-0.41 73.3 C-0.37 50, -0.44 26.09, -0.84 0.15" stroke="#000000" stroke-width="1" fill="none"></path></g><g transform="translate(545.1306739889942 2331.535734821354) rotate(0 93.67857142857144 21.5)"><text x="0" y="32" font-family="Virgil, Segoe UI Emoji" font-size="30.71428571428572px" fill="#000000" text-anchor="start" style="white-space: pre;" direction="ltr">我的历史对局</text></g><g stroke-linecap="round" transform="translate(474.8806460145475 2824.5353686104163) rotate(0 222.66667683919258 378.6666870117185)"><path d="M0.24 0.81 C130.49 -1.6, 261 -0.96, 446.03 0.16 M0.4 0.2 C157.19 -0.06, 313.91 -0.62, 445.34 -0.28 M446.01 0.2 C445.27 175.94, 445.22 352.38, 445.21 757.48 M445.24 0 C448.02 188.93, 448.28 377.28, 445.4 757.34 M444.79 756.61 C275.81 756.6, 107.34 757.26, 0.6 757.5 M445.76 757.33 C337.09 759.08, 228.85 759.01, -0.21 757.39 M0.05 756.68 C0.33 485.72, 0.3 213.26, 0.41 -0.46 M0.23 757.09 C-0.67 486.5, -1.07 215.28, 0.21 -0.25" stroke="#000000" stroke-width="1" fill="none"></path></g><g stroke-linecap="round"><g transform="translate(694.9458875147159 2421.868742633854) rotate(0 10.42474446421869 198.6922479622533)"><path d="M-0.93 -0.81 C2.82 65.46, 18.02 330.55, 21.78 396.89 M0.79 1.38 C4.47 67.87, 17.7 332, 21.07 398.2" stroke="#000000" stroke-width="1" fill="none"></path></g><g transform="translate(694.9458875147159 2421.868742633854) rotate(0 10.42474446421869 198.6922479622533)"><path d="M8.05 371.33 C11.33 377.85, 14.77 384.53, 21.91 396.66 M10.25 370.41 C13.42 381.85, 19.23 392.53, 21.85 398.79" stroke="#000000" stroke-width="1" fill="none"></path></g><g transform="translate(694.9458875147159 2421.868742633854) rotate(0 10.42474446421869 198.6922479622533)"><path d="M28.55 370.29 C26.84 376.91, 25.29 383.84, 21.91 396.66 M30.74 369.38 C25.76 381.08, 23.41 392.17, 21.85 398.79" stroke="#000000" stroke-width="1" fill="none"></path></g></g><g transform="translate(730.8810122254852 2599.53540930052) rotate(0 41 14)"><text x="0" y="21" font-family="Virgil, Segoe UI Emoji" font-size="20px" fill="#000000" text-anchor="start" style="white-space: pre;" direction="ltr">历史对局</text></g><g transform="translate(381.5475161317352 3037.5354906807283) rotate(0 322.5 51)"><text x="0" y="75" font-family="Virgil, Segoe UI Emoji" font-size="71.42851329985105px" fill="#000000" text-anchor="start" style="white-space: pre;" direction="ltr">此处显示各历史对局</text></g><g stroke-linecap="round"><g transform="translate(938.8806867046519 3187.390813564583) rotate(0 260.62515110254014 -368.23742278992154)"><path d="M-0.07 -0.4 C83.26 -64.57, 426.43 -263.01, 499.6 -385.62 C572.77 -508.23, 449.03 -677.88, 438.94 -736.07 M-1.56 -1.66 C81.71 -66.14, 425.32 -265.21, 499.14 -387.44 C572.97 -509.67, 451.41 -676.8, 441.37 -735.05" stroke="#000000" stroke-width="1" fill="none"></path></g><g transform="translate(938.8806867046519 3187.390813564583) rotate(0 260.62515110254014 -368.23742278992154)"><path d="M460.65 -711.08 C456.93 -720.23, 449.62 -726.19, 442.61 -733.15 M461.35 -712.92 C454.42 -720.27, 449.63 -726.98, 440.66 -734.6" stroke="#000000" stroke-width="1" fill="none"></path></g><g transform="translate(938.8806867046519 3187.390813564583) rotate(0 260.62515110254014 -368.23742278992154)"><path d="M441.58 -703.5 C443.1 -714.71, 440.99 -722.73, 442.61 -733.15 M442.28 -705.34 C441.17 -715.04, 442.21 -724.07, 440.66 -734.6" stroke="#000000" stroke-width="1" fill="none"></path></g></g><g transform="translate(1197.5472719911102 2911.3713668120467) rotate(0 144.99998982747388 33.27868618991204)"><text x="0" y="48.557372379824045" font-family="Virgil, Segoe UI Emoji" font-size="47.54098027130292px" fill="#000000" text-anchor="start" style="white-space: pre;" direction="ltr">从残局开始玩</text></g><g stroke-linecap="round" transform="translate(123.27412876775583 2108.2078605014613) rotate(0 152.00001307896213 36.00003923688615)"><path d="M0.58 0.38 C91.65 1.78, 184.01 1.4, 304.14 0.03 M-0.41 0.63 C84.14 -2.49, 169.12 -1.48, 303.91 -0.27 M303.34 1.76 C304.97 16.6, 302.53 35.85, 304.57 70.78 M304.64 -0.74 C304.09 22.18, 304.01 43.31, 303.16 71.48 M304.44 71.18 C200.65 73.92, 97.95 75.37, -0.63 71.54 M304.48 72.01 C203.07 72.46, 103.31 72.45, 0.57 72.55 M-1.99 73.86 C2.4 54.87, -0.41 35.84, 1.9 1.8 M0.72 71.93 C0.59 54.66, 1.09 38.56, 0.66 0.47" stroke="#000000" stroke-width="1" fill="none"></path></g><g transform="translate(125.55980817623794 2040.6154790074909) rotate(0 83.28574480329242 28.439034810880344)"><text x="0" y="41.87806962176065" font-family="Virgil, Segoe UI Emoji" font-size="40.62719258697189px" fill="#000000" text-anchor="start" style="white-space: pre;" direction="ltr">输入网名</text></g><g stroke-linecap="round" transform="translate(324.4170120685372 2036.2078692207695) rotate(0 29.71426827566961 30.285709926060292)"><path d="M1.6 1.11 C11.83 -1.06, 27.47 0.44, 59.88 1.11 M-0.51 -0.32 C19.9 -1.32, 39.6 0.53, 59.38 -0.03 M60.65 -1.82 C60.23 20.17, 59.16 43.77, 59.38 59.55 M58.85 -0.87 C58.51 16.17, 58.35 29.76, 59.83 60.6 M59.92 61.43 C41.83 60.47, 27.35 59.65, 1.81 60.04 M60.21 60.14 C37.47 61.72, 14.57 60.75, 0.96 61.11 M-1.53 61.1 C-0.5 41.79, -0.18 26.15, -0.99 -0.36 M0.87 61.5 C0.6 38.5, 0.07 18.18, 0.51 0.36" stroke="#000000" stroke-width="1" fill="none"></path></g><g transform="translate(149.5598343341622 2120.922163654363) rotate(0 41.571441650390604 27.71429443359375)"><text x="0" y="40.42858886718745" font-family="Virgil, Segoe UI Emoji" font-size="39.591849190848194px" fill="#000000" text-anchor="start" style="white-space: pre;" direction="ltr">小明</text></g><g stroke-linecap="round" transform="translate(507.094870693677 1907.5832790282384) rotate(0 142.85714285714283 117.14287894112721)"><path d="M-1.14 -1.13 C97.02 -3.2, 194.69 -3.21, 285.34 -0.01 M-0.13 -0.03 C70.83 -1.62, 141.31 -1.99, 285.03 -0.61 M285.62 -0.03 C285.66 56.93, 283.03 110.27, 284.73 234.44 M285.94 -0.59 C286.2 76.68, 285.35 153.81, 284.93 233.64 M284.23 233.59 C184.05 233.1, 85.14 231.4, 1.41 234.2 M285.87 234.92 C207.68 233.41, 127.79 232.85, -0.01 234.27 M1.52 234.65 C0.76 173.76, 1.32 111.91, -0.06 0.09 M0.75 233.86 C2.25 175.5, 1.8 118.11, -0.77 0.54" stroke="#000000" stroke-width="1" fill="none"></path></g><g transform="translate(150.80908338375764 1826.6292490484448) rotate(0 52.142861502511145 23.548389065650184)"><text x="0" y="34.09677813130038" font-family="Virgil, Segoe UI Emoji" font-size="33.640555808071696px" fill="#000000" text-anchor="start" style="white-space: pre;" direction="ltr">欢迎你</text></g><g stroke-linecap="round" transform="translate(149.66624367951658 1881.0118199392318) rotate(0 113.71427263532365 40)"><path d="M0.7 0.42 C54.8 -0.98, 111.19 -2.27, 227.66 1.51 M0.31 0.05 C61.85 -1.05, 122.83 -1.01, 227.06 0.77 M226.99 0.91 C227.02 21.85, 227.7 42.76, 228.97 80 M228.39 -0.41 C227.79 23.08, 226.18 47.83, 227.67 79.74 M227.82 80.24 C178.02 80.17, 129.39 79.16, -1.33 78.48 M226.61 79.61 C166.76 77.88, 104.53 77.99, -0.64 79.74 M-1.48 81.57 C-1.01 48.38, -0.23 16.66, -1.73 -0.28 M-0.38 79.15 C-0.27 55.53, 0.04 30.48, -0.51 0.05" stroke="#000000" stroke-width="1" fill="none"></path></g><g transform="translate(165.66621752159256 1892.1070347829818) rotate(0 42.14286150251117 28.09524100167411)"><text x="0" y="40.190482003348215" font-family="Virgil, Segoe UI Emoji" font-size="40.13605857382015px" fill="#000000" text-anchor="start" style="white-space: pre;" direction="ltr">小明</text></g><g transform="translate(333.1312803442068 2041.4935791468297) rotate(0 21 25)"><text x="21" y="18" font-family="Virgil, Segoe UI Emoji" font-size="20px" fill="#000000" text-anchor="middle" style="white-space: pre;" direction="ltr">随机</text><text x="21" y="43" font-family="Virgil, Segoe UI Emoji" font-size="20px" fill="#000000" text-anchor="middle" style="white-space: pre;" direction="ltr">生成</text></g><g transform="translate(130.5234388525074 1836.440308534377) rotate(0 330.85712977818076 206.28572736467635)" stroke="none"><path fill="#000000" d="M -0.20,-1.54 Q -0.20,-1.54 4.72,-2.17 9.65,-2.79 14.00,-3.69 18.34,-4.60 22.93,-4.99 27.51,-5.38 33.74,-5.54 39.96,-5.70 49.48,-6.09 59.00,-6.48 69.92,-7.30 80.85,-8.12 93.06,-9.12 105.26,-10.12 117.05,-10.55 128.85,-10.98 139.75,-11.49 150.66,-11.99 160.24,-12.21 169.82,-12.43 178.50,-12.52 187.17,-12.61 194.83,-12.32 202.49,-12.03 209.07,-11.24 215.65,-10.46 222.12,-8.79 228.59,-7.13 234.93,-5.44 241.26,-3.76 247.25,-2.05 253.24,-0.35 259.39,1.35 265.54,3.06 272.11,5.11 278.69,7.15 285.77,9.67 292.86,12.19 301.05,14.22 309.25,16.26 317.97,17.78 326.69,19.30 335.31,20.27 343.92,21.24 352.81,21.66 361.70,22.07 370.11,22.57 378.52,23.08 386.01,23.29 393.50,23.51 400.62,23.60 407.75,23.69 414.75,24.06 421.75,24.43 428.97,24.58 436.18,24.74 442.90,25.13 449.61,25.53 456.38,25.70 463.14,25.86 469.66,26.26 476.18,26.66 482.24,27.16 488.31,27.66 494.82,28.20 501.33,28.74 508.70,29.30 516.06,29.86 523.14,30.43 530.21,30.99 537.46,31.23 544.71,31.47 552.06,31.57 559.41,31.67 566.48,31.72 573.55,31.76 580.82,31.78 588.10,31.80 594.80,31.81 601.51,31.81 607.65,31.82 613.78,31.82 618.98,31.49 624.17,31.17 628.34,30.70 632.50,30.24 635.96,30.04 639.43,29.83 642.87,29.75 646.32,29.66 649.76,29.63 653.20,29.59 655.97,29.58 658.75,29.56 661.65,29.89 664.55,30.21 666.80,30.69 669.05,31.17 671.09,32.06 673.14,32.95 675.35,34.35 677.56,35.74 679.89,38.05 682.22,40.36 684.48,42.61 686.73,44.87 688.71,47.18 690.69,49.49 692.84,52.11 694.99,54.73 696.60,57.22 698.21,59.70 699.89,62.74 701.56,65.78 702.93,68.38 704.29,70.98 705.84,73.71 707.40,76.43 708.73,78.93 710.06,81.42 711.26,83.44 712.47,85.45 713.37,88.09 714.27,90.72 715.27,93.06 716.27,95.39 717.06,98.12 717.85,100.85 718.51,104.00 719.17,107.14 719.78,110.11 720.39,113.07 720.66,116.71 720.92,120.35 721.04,123.86 721.15,127.38 721.52,130.78 721.89,134.18 722.05,137.99 722.21,141.80 722.61,145.33 723.00,148.86 723.17,152.05 723.34,155.25 723.42,158.59 723.49,161.92 723.52,165.64 723.55,169.36 723.23,172.97 722.91,176.58 722.11,180.47 721.31,184.35 720.30,187.98 719.30,191.61 718.22,195.44 717.14,199.27 715.68,203.24 714.22,207.22 712.62,211.83 711.03,216.44 709.37,221.36 707.70,226.28 706.00,231.01 704.31,235.75 702.94,240.66 701.58,245.58 700.34,249.99 699.10,254.40 698.59,258.80 698.08,263.21 697.19,267.16 696.29,271.11 695.59,274.72 694.89,278.32 693.91,280.95 692.92,283.58 691.84,286.01 690.77,288.43 689.63,290.48 688.50,292.53 687.35,294.40 686.20,296.26 684.30,298.16 682.40,300.05 679.17,301.58 675.93,303.11 672.62,304.38 669.30,305.65 665.58,306.85 661.85,308.06 656.95,309.23 652.05,310.41 646.72,311.88 641.39,313.36 634.47,314.66 627.54,315.96 620.06,317.81 612.57,319.66 605.10,321.44 597.62,323.22 589.48,324.64 581.34,326.06 572.62,327.32 563.90,328.58 554.94,329.77 545.98,330.96 536.91,332.13 527.85,333.29 520.06,334.44 512.28,335.59 505.34,336.41 498.39,337.23 491.88,338.56 485.38,339.88 478.94,340.78 472.50,341.69 465.87,343.05 459.25,344.40 453.13,345.64 447.01,346.88 440.43,347.74 433.84,348.61 427.46,349.62 421.08,350.64 414.79,352.05 408.50,353.46 402.55,355.05 396.60,356.63 390.81,358.61 385.03,360.58 380.28,362.41 375.52,364.23 370.48,365.68 365.44,367.14 360.04,368.73 354.64,370.32 348.76,372.31 342.87,374.29 336.05,376.14 329.22,377.98 321.77,380.40 314.32,382.81 306.17,384.83 298.01,386.86 290.65,389.03 283.29,391.19 276.86,393.10 270.44,395.00 265.41,396.47 260.37,397.94 255.59,399.23 250.81,400.51 245.81,401.72 240.81,402.92 235.43,404.41 230.05,405.91 224.17,407.85 218.29,409.79 212.82,411.60 207.35,413.42 202.07,415.17 196.79,416.93 191.25,418.67 185.70,420.40 179.66,421.49 173.61,422.57 167.10,423.36 160.59,424.14 152.85,424.48 145.12,424.82 137.24,424.96 129.36,425.10 121.74,425.16 114.12,425.22 107.59,425.25 101.07,425.27 95.26,424.62 89.46,423.97 85.08,423.70 80.71,423.43 77.10,422.64 73.48,421.85 69.98,420.85 66.47,419.86 63.07,419.12 59.66,418.38 56.44,417.04 53.22,415.70 49.96,414.50 46.69,413.30 42.97,411.80 39.26,410.29 35.68,408.65 32.11,407.02 27.93,404.66 23.75,402.30 18.69,399.33 13.64,396.36 8.19,392.79 2.73,389.21 -2.55,385.38 -7.84,381.55 -12.73,377.61 -17.63,373.67 -22.65,369.71 -27.67,365.75 -31.82,361.72 -35.98,357.69 -39.75,352.97 -43.53,348.26 -46.46,343.60 -49.40,338.93 -51.95,334.66 -54.51,330.39 -56.29,325.85 -58.08,321.32 -59.17,317.06 -60.26,312.79 -60.73,308.62 -61.20,304.46 -61.40,300.71 -61.59,296.97 -61.68,293.07 -61.76,289.18 -61.46,285.49 -61.17,281.81 -60.37,278.52 -59.57,275.24 -58.91,272.26 -58.25,269.28 -57.65,266.06 -57.04,262.83 -56.12,259.12 -55.20,255.40 -53.81,251.16 -52.42,246.93 -50.85,241.87 -49.28,236.81 -47.97,232.05 -46.65,227.29 -45.77,222.03 -44.89,216.78 -43.85,211.55 -42.81,206.31 -41.72,200.16 -40.62,194.01 -39.17,187.43 -37.71,180.84 -35.43,174.36 -33.15,167.88 -30.88,160.90 -28.61,153.93 -26.32,147.65 -24.03,141.37 -22.42,135.15 -20.81,128.94 -19.14,122.65 -17.46,116.37 -16.43,110.15 -15.40,103.93 -14.63,98.32 -13.86,92.71 -13.54,87.08 -13.22,81.45 -13.08,76.11 -12.94,70.76 -12.55,66.14 -12.16,61.51 -11.33,57.52 -10.50,53.52 -9.82,49.58 -9.15,45.64 -8.53,42.61 -7.91,39.59 -7.31,36.99 -6.72,34.39 -6.13,32.27 -5.55,30.16 -5.37,28.37 -5.19,26.58 -5.19,25.16 -5.19,23.73 -4.88,22.27 -4.56,20.80 -4.52,19.73 -4.47,18.65 -4.08,17.02 -3.69,15.40 -3.21,13.99 -2.72,12.58 -2.60,10.78 -2.48,8.99 -2.54,7.46 -2.59,5.93 -2.66,4.57 -2.74,3.21 -2.38,0.81 -2.02,-1.58 -1.44,-2.66 -0.86,-3.74 -0.78,-4.71 -0.69,-5.67 -0.54,-6.00 -0.40,-6.33 -0.18,-6.61 0.03,-6.90 0.31,-7.12 0.59,-7.35 0.92,-7.50 1.25,-7.65 1.60,-7.72 1.95,-7.78 2.31,-7.76 2.67,-7.75 3.01,-7.64 3.36,-7.54 3.66,-7.35 3.97,-7.17 4.23,-6.92 4.49,-6.67 4.67,-6.36 4.86,-6.06 4.97,-5.71 5.08,-5.37 5.11,-5.01 5.13,-4.65 5.07,-4.30 5.01,-3.95 3.65,-1.45 2.30,1.03 2.07,1.37 1.85,1.71 1.53,1.96 1.20,2.21 0.82,2.35 0.43,2.48 0.02,2.49 -0.38,2.49 -0.76,2.37 -1.15,2.24 -1.48,2.00 -1.81,1.75 -2.04,1.42 -2.28,1.08 -2.39,0.69 -2.50,0.30 -2.49,-0.10 -2.47,-0.51 -2.32,-0.89 -2.17,-1.27 -1.91,-1.59 -1.65,-1.90 -1.30,-2.12 -0.96,-2.33 -0.56,-2.42 -0.16,-2.52 0.24,-2.48 0.64,-2.44 1.02,-2.27 1.39,-2.10 1.69,-1.82 1.99,-1.55 2.18,-1.19 2.38,-0.83 2.45,-0.43 2.52,-0.02 2.46,0.37 2.40,0.77 2.21,1.14 2.02,1.50 1.73,1.79 1.44,2.07 1.07,2.25 0.70,2.42 0.29,2.47 -0.10,2.52 -0.50,2.44 -0.90,2.35 -1.26,2.15 -1.61,1.94 -1.88,1.63 -2.15,1.32 -2.30,0.94 -2.46,0.57 -2.48,0.16 -2.51,-0.24 -2.41,-0.64 -2.30,-1.03 -2.30,-1.03 -2.30,-1.03 -1.49,-3.35 -0.69,-5.67 -0.54,-6.00 -0.40,-6.33 -0.18,-6.61 0.03,-6.90 0.31,-7.12 0.59,-7.35 0.92,-7.50 1.25,-7.65 1.60,-7.72 1.95,-7.78 2.31,-7.76 2.67,-7.75 3.01,-7.64 3.36,-7.54 3.66,-7.35 3.97,-7.17 4.23,-6.92 4.49,-6.67 4.67,-6.36 4.86,-6.06 4.97,-5.71 5.08,-5.37 5.11,-5.01 5.13,-4.65 5.07,-4.30 5.01,-3.95 4.53,-2.38 4.05,-0.82 3.42,0.29 2.78,1.41 2.71,2.97 2.64,4.53 2.53,6.27 2.42,8.00 2.15,9.66 1.89,11.31 1.57,12.70 1.25,14.09 0.74,15.27 0.24,16.44 -0.16,17.81 -0.56,19.17 -0.83,20.49 -1.10,21.81 -1.53,22.90 -1.96,23.98 -2.17,25.46 -2.38,26.95 -2.70,28.90 -3.01,30.86 -3.59,32.91 -4.16,34.97 -4.75,37.55 -5.33,40.12 -5.95,43.10 -6.56,46.08 -7.24,50.07 -7.92,54.06 -8.74,57.90 -9.55,61.74 -9.93,66.28 -10.32,70.82 -10.46,76.22 -10.60,81.61 -10.93,87.33 -11.26,93.06 -12.04,98.71 -12.81,104.36 -13.86,110.70 -14.92,117.05 -16.60,123.32 -18.27,129.60 -19.92,135.93 -21.56,142.27 -23.84,148.50 -26.11,154.74 -28.39,161.75 -30.67,168.75 -32.91,175.08 -35.15,181.41 -36.59,187.94 -38.04,194.47 -39.14,200.65 -40.24,206.82 -41.27,212.02 -42.30,217.22 -43.21,222.60 -44.12,227.99 -45.45,232.79 -46.78,237.59 -48.35,242.67 -49.92,247.74 -51.28,251.89 -52.65,256.04 -53.55,259.68 -54.46,263.32 -55.08,266.58 -55.69,269.85 -56.35,272.86 -57.02,275.87 -57.78,278.95 -58.55,282.02 -58.84,285.57 -59.13,289.12 -59.05,292.98 -58.97,296.83 -58.78,300.50 -58.59,304.17 -58.15,308.16 -57.72,312.15 -56.67,316.25 -55.63,320.36 -53.94,324.70 -52.25,329.05 -49.71,333.29 -47.18,337.53 -44.33,342.08 -41.47,346.62 -37.81,351.21 -34.15,355.80 -30.09,359.74 -26.04,363.68 -21.01,367.65 -15.98,371.62 -11.14,375.52 -6.30,379.42 -1.06,383.22 4.17,387.02 9.57,390.56 14.97,394.10 20.01,397.06 25.04,400.01 29.12,402.32 33.21,404.63 36.73,406.24 40.24,407.85 43.92,409.35 47.60,410.84 50.92,412.06 54.24,413.28 57.23,414.55 60.23,415.82 63.71,416.58 67.19,417.33 70.62,418.31 74.05,419.28 77.46,420.04 80.88,420.80 85.32,421.08 89.75,421.36 95.41,422.00 101.06,422.64 107.58,422.62 114.10,422.59 121.70,422.53 129.31,422.47 137.16,422.33 145.01,422.19 152.64,421.86 160.27,421.54 166.71,420.76 173.15,419.99 179.04,418.94 184.92,417.89 190.44,416.17 195.96,414.44 201.24,412.68 206.52,410.92 211.99,409.11 217.46,407.29 223.41,405.33 229.35,403.37 234.77,401.87 240.20,400.37 245.16,399.17 250.13,397.98 254.88,396.70 259.64,395.42 264.66,393.95 269.69,392.49 276.12,390.58 282.55,388.67 289.96,386.49 297.38,384.31 305.44,382.31 313.51,380.31 321.02,377.88 328.54,375.45 335.28,373.63 342.03,371.80 347.96,369.80 353.90,367.81 359.31,366.21 364.72,364.61 369.65,363.19 374.59,361.78 379.38,359.94 384.18,358.10 390.05,356.09 395.92,354.09 401.92,352.50 407.93,350.90 414.30,349.47 420.67,348.05 427.08,347.02 433.50,346.00 439.99,345.15 446.49,344.31 452.61,343.07 458.72,341.83 465.43,340.46 472.13,339.09 478.50,338.20 484.86,337.31 491.47,335.97 498.08,334.62 504.99,333.81 511.90,332.99 519.70,331.84 527.51,330.69 536.57,329.52 545.63,328.36 554.58,327.17 563.53,325.98 572.21,324.73 580.89,323.47 588.95,322.07 597.02,320.66 604.48,318.89 611.94,317.11 619.50,315.24 627.06,313.37 633.88,312.10 640.69,310.83 646.07,309.34 651.44,307.86 656.24,306.71 661.05,305.56 664.71,304.38 668.36,303.20 671.60,301.96 674.83,300.72 677.72,299.43 680.60,298.15 682.29,296.51 683.98,294.87 685.09,293.06 686.20,291.26 687.28,289.31 688.37,287.36 689.42,285.01 690.47,282.65 691.39,280.23 692.32,277.82 693.02,274.17 693.73,270.53 694.60,266.72 695.47,262.90 696.02,258.30 696.57,253.69 697.81,249.29 699.05,244.88 700.44,239.87 701.83,234.86 703.52,230.15 705.21,225.44 706.88,220.51 708.55,215.58 710.15,210.95 711.75,206.31 713.18,202.43 714.61,198.55 715.69,194.73 716.77,190.91 717.75,187.36 718.74,183.81 719.52,180.08 720.30,176.35 720.61,172.86 720.92,169.38 720.89,165.68 720.86,161.98 720.79,158.69 720.72,155.39 720.55,152.27 720.39,149.14 719.99,145.53 719.59,141.91 719.43,138.19 719.28,134.46 718.90,130.96 718.52,127.46 718.41,124.00 718.30,120.54 718.06,117.07 717.81,113.60 717.21,110.64 716.60,107.68 715.96,104.63 715.32,101.58 714.59,99.00 713.85,96.42 712.82,93.99 711.78,91.56 711.00,89.18 710.21,86.79 708.97,84.73 707.74,82.66 706.43,80.20 705.11,77.73 703.54,74.97 701.96,72.21 700.61,69.63 699.26,67.05 697.63,64.09 696.00,61.13 694.48,58.76 692.96,56.40 690.82,53.80 688.69,51.21 686.78,48.97 684.87,46.74 682.61,44.48 680.35,42.22 678.24,40.10 676.14,37.97 674.09,36.67 672.05,35.37 670.27,34.55 668.49,33.73 666.37,33.28 664.25,32.82 661.50,32.51 658.76,32.19 655.99,32.20 653.23,32.22 649.81,32.25 646.39,32.29 642.98,32.37 639.58,32.46 636.19,32.65 632.79,32.85 628.56,33.32 624.34,33.79 619.06,34.12 613.78,34.45 607.64,34.44 601.51,34.44 594.80,34.43 588.09,34.42 580.81,34.41 573.53,34.39 566.45,34.34 559.38,34.30 552.00,34.20 544.62,34.09 537.31,33.85 530.00,33.61 522.93,33.04 515.86,32.48 508.49,31.92 501.12,31.36 494.60,30.82 488.09,30.28 482.06,29.78 476.02,29.29 469.55,28.89 463.07,28.49 456.27,28.32 449.46,28.15 442.79,27.76 436.13,27.36 428.87,27.21 421.61,27.05 414.67,26.68 407.72,26.32 400.57,26.22 393.42,26.13 385.89,25.92 378.36,25.70 369.97,25.20 361.58,24.69 352.60,24.27 343.63,23.85 334.93,22.87 326.24,21.89 317.43,20.35 308.62,18.81 300.30,16.74 291.98,14.67 284.94,12.16 277.91,9.66 271.37,7.63 264.83,5.59 258.67,3.88 252.52,2.17 246.55,0.47 240.59,-1.22 234.26,-2.90 227.94,-4.58 221.63,-6.21 215.33,-7.84 208.86,-8.62 202.39,-9.39 194.79,-9.68 187.20,-9.97 178.54,-9.87 169.88,-9.78 160.33,-9.56 150.78,-9.34 139.86,-8.83 128.94,-8.32 117.21,-7.88 105.48,-7.45 93.27,-6.44 81.05,-5.43 70.08,-4.59 59.11,-3.75 49.57,-3.34 40.04,-2.93 33.90,-2.75 27.76,-2.57 23.35,-2.17 18.94,-1.77 14.50,-0.80 10.05,0.16 5.13,0.85 0.20,1.54 0.01,1.55 -0.17,1.55 -0.35,1.50 -0.53,1.46 -0.70,1.38 -0.87,1.29 -1.01,1.17 -1.15,1.04 -1.26,0.89 -1.37,0.74 -1.44,0.56 -1.51,0.39 -1.53,0.20 -1.56,0.01 -1.54,-0.16 -1.52,-0.35 -1.45,-0.53 -1.39,-0.70 -1.28,-0.86 -1.18,-1.02 -1.04,-1.14 -0.90,-1.27 -0.73,-1.36 -0.57,-1.45 -0.38,-1.50 -0.20,-1.54 -0.20,-1.54 L -0.20,-1.54 Z"></path></g><g transform="translate(389.5233287712435 1990.868882142775) rotate(0 211 14)"><text x="0" y="21" font-family="Virgil, Segoe UI Emoji" font-size="20px" fill="#000000" text-anchor="start" style="white-space: pre;" direction="ltr">未注册的新玩家用下面，此设备已经注册用上面</text></g><g stroke-linecap="round"><g transform="translate(2007.118784849183 679.7871906315357) rotate(0 -585.610245669403 26.466216752251796)"><path d="M0.55 -0.41 C-136.53 -30.54, -626.95 -221.1, -822.34 -181.11 C-1017.73 -141.12, -1113.53 169.5, -1171.77 239.53 M-0.62 -1.68 C-137.84 -31.63, -628.27 -219.75, -823.07 -179.91 C-1017.86 -140.07, -1111.24 167.37, -1169.41 237.37" stroke="#000000" stroke-width="1" fill="none"></path></g><g transform="translate(2007.118784849183 679.7871906315357) rotate(0 -585.610245669403 26.466216752251796)"><path d="M-1165.26 208.47 C-1167.24 215.37, -1167.11 224.65, -1169.61 236.71 M-1164.42 207.22 C-1165.32 216.11, -1167.36 226.58, -1169.95 236.59" stroke="#000000" stroke-width="1" fill="none"></path></g><g transform="translate(2007.118784849183 679.7871906315357) rotate(0 -585.610245669403 26.466216752251796)"><path d="M-1147.36 218.51 C-1154.91 222.35, -1160.39 228.48, -1169.61 236.71 M-1146.52 217.26 C-1153.04 222.87, -1160.68 230.2, -1169.95 236.59" stroke="#000000" stroke-width="1" fill="none"></path></g></g><g transform="translate(1409.0233236849801 539.702296856317) rotate(0 171.3810410272514 39.33335367838555)"><text x="0" y="57.666707356771155" font-family="Virgil, Segoe UI Emoji" font-size="56.190505254836545px" fill="#000000" text-anchor="start" style="white-space: pre;" direction="ltr">游戏正常结束</text></g><g stroke-linecap="round"><g transform="translate(2026.3568502963078 462.8689126603547) rotate(0 -1007.8787551332603 558.7887990271503)"><path d="M-1.05 -0.34 C-310.15 7.71, -1539 -127.4, -1853.97 47.17 C-2168.95 221.74, -1936.85 863.78, -1890.89 1047.07 C-1844.93 1230.37, -1630.19 1129.93, -1578.22 1146.92 M0.6 -1.56 C-308.16 6.71, -1536.2 -126.64, -1851.6 48.27 C-2166.99 223.18, -1937.42 864.71, -1891.77 1047.91 C-1846.13 1231.11, -1630.19 1131.06, -1577.73 1147.46" stroke="#000000" stroke-width="1" fill="none"></path></g><g transform="translate(2026.3568502963078 462.8689126603547) rotate(0 -1007.8787551332603 558.7887990271503)"><path d="M-1605.68 1158.64 C-1596.79 1155.28, -1587.34 1152.11, -1579.53 1146.84 M-1605.32 1158.99 C-1593.48 1155.31, -1584.31 1149.64, -1577.06 1148.09" stroke="#000000" stroke-width="1" fill="none"></path></g><g transform="translate(2026.3568502963078 462.8689126603547) rotate(0 -1007.8787551332603 558.7887990271503)"><path d="M-1607.14 1138.17 C-1597.92 1142.01, -1587.96 1146.01, -1579.53 1146.84 M-1606.78 1138.52 C-1594.37 1142.79, -1584.63 1145.08, -1577.06 1148.09" stroke="#000000" stroke-width="1" fill="none"></path></g></g><g transform="translate(122.35680960620476 485.8687804175163) rotate(0 135.00035313197503 23.333394368489508)"><text x="0" y="33.66678873697903" font-family="Virgil, Segoe UI Emoji" font-size="33.33342052641358px" fill="#000000" text-anchor="start" style="white-space: pre;" direction="ltr">本地玩家要求退出</text></g><g stroke-linecap="round" transform="translate(1098.3566671908393 696.202296856316) rotate(0 242.6666259765626 385.33335367838515)"><path d="M-0.52 0.53 C133.9 -1.91, 267.69 -1.82, 485.92 -0.69 M0.34 -0.11 C128.59 1.74, 256.36 1.72, 484.92 0.35 M485.91 -0.02 C486.46 159.86, 487.02 320.02, 486.1 771.44 M485.4 -0.28 C486.5 283.27, 486.88 566.02, 485.09 770.86 M486.06 770.78 C381.7 772.07, 279.38 771.79, -0.24 770.02 M485.06 770.9 C303.19 772.62, 121.56 772.11, 0.4 770.64 M-0.09 770.64 C-2.27 513.41, -2.16 256.6, -0.43 0.73 M-0.05 770.87 C-1.4 585.21, -1.13 399.71, -0.38 -0.15" stroke="#000000" stroke-width="1" fill="none"></path></g><g transform="translate(1157.0230490267766 929.8689228328788) rotate(0 202.666727701823 32.20953350975401)"><text x="0" y="47.41906701950799" font-family="Virgil, Segoe UI Emoji" font-size="44.91334752207195px" fill="#000000" text-anchor="start" style="white-space: pre;" direction="ltr">你的对手离开了对局</text></g><g stroke-linecap="round" transform="translate(1181.023496617923 1336.2022968563228) rotate(0 173.33333333333303 50.666656494140625)"><path d="M0.31 -0.86 C114.17 -0.93, 226.37 -1.52, 346.2 -0.99 M-0.6 0.64 C122.9 0.52, 244.68 0.31, 347.15 0.56 M345.56 1.87 C348.02 39.87, 349.31 80.05, 345.14 102.48 M347.38 -0.9 C346.72 38.44, 346.31 78.11, 347.09 101.91 M346.29 101.06 C237.14 101.02, 127.98 100.27, -0.4 100.79 M346.66 101.42 C267.77 102.29, 190.18 101.85, 0.07 101.74 M1.18 103.21 C0.15 76.56, -1.49 48.31, -1.4 0.79 M-0.68 100.82 C1.6 80.71, 1.09 59.73, 0.02 -0.88" stroke="#000000" stroke-width="1" fill="none"></path></g><g transform="translate(1242.3567078809444 1357.8689024878333) rotate(0 87.85717264811183 30.000010172526004)"><text x="0" y="44.00002034505201" font-family="Virgil, Segoe UI Emoji" font-size="42.85715738932284px" fill="#000000" text-anchor="start" style="white-space: pre;" direction="ltr">重新匹配</text></g><g stroke-linecap="round" transform="translate(1157.0236593783395 1173.5356708797603) rotate(0 181.33331298828102 60)"><path d="M0.55 -0.89 C100.03 -0.13, 197.94 -0.07, 362.58 0.01 M0 0.38 C122.84 -0.19, 244.81 -0.2, 362.18 0.04 M362.42 0.45 C360.65 45.96, 363.34 89.85, 361.52 118.97 M363.45 -0.86 C361.62 24.58, 361.04 49.24, 361.82 119.41 M362.59 120.74 C245.91 121.34, 130.2 122.14, 1.24 120.33 M362.19 119.86 C286.19 121.61, 209.84 121.84, -0.55 119.85 M1.79 121.73 C0.46 90.71, 1.77 64.33, -1.82 -0.85 M0.03 120.23 C-0.82 74.61, 0.17 30.22, -0.7 0.11" stroke="#000000" stroke-width="1" fill="none"></path></g><g transform="translate(1210.3567892611518 1205.868882142781) rotate(0 133.57146562848766 36.66667683919269)"><text x="0" y="54.33335367838539" font-family="Virgil, Segoe UI Emoji" font-size="52.38096691313244px" fill="#000000" text-anchor="start" style="white-space: pre;" direction="ltr">我也不玩了</text></g><g stroke-linecap="round"><g transform="translate(1084.8247827211992 1216.1334087980822) rotate(0 -217.32264612295876 202.08668258843946)"><path d="M-0.26 1 C-21.24 50.16, -54.03 226.7, -126.69 293.82 C-199.34 360.94, -384.61 385.64, -436.19 403.7 M1.81 0.47 C-19.17 49.37, -54.01 225.02, -127.05 291.92 C-200.09 358.82, -385.07 383.35, -436.45 401.87" stroke="#000000" stroke-width="1" fill="none"></path></g><g transform="translate(1084.8247827211992 1216.1334087980822) rotate(0 -217.32264612295876 202.08668258843946)"><path d="M-410.01 386.82 C-416.94 390.46, -421.84 394.49, -437.36 401.91 M-412.65 384.72 C-418.57 389.35, -423.24 393.54, -435.93 402.34" stroke="#000000" stroke-width="1" fill="none"></path></g><g transform="translate(1084.8247827211992 1216.1334087980822) rotate(0 -217.32264612295876 202.08668258843946)"><path d="M-404.94 406.71 C-412.87 405.67, -418.96 405.04, -437.36 401.91 M-407.59 404.61 C-414.76 404.26, -420.69 403.51, -435.93 402.34" stroke="#000000" stroke-width="1" fill="none"></path></g></g><g stroke-linecap="round"><g transform="translate(2181.023496617922 458.86892283288466) rotate(0 -481.8123265001342 -97.91677928775948)"><path d="M-1.12 1.06 C-48.6 -52, -132.7 -254.27, -285.21 -317.53 C-437.73 -380.79, -810.41 -468.15, -916.21 -378.49 C-1022.01 -288.84, -919.49 120.55, -920.02 220.39 M0.5 0.57 C-47.11 -52.37, -133.28 -253.15, -286.09 -316.09 C-438.91 -379.04, -810.77 -466.6, -916.39 -377.09 C-1022 -287.57, -919.08 121.39, -919.76 221" stroke="#000000" stroke-width="1" fill="none"></path></g><g transform="translate(2181.023496617922 458.86892283288466) rotate(0 -481.8123265001342 -97.91677928775948)"><path d="M-931.57 194.45 C-929.75 203.61, -925.4 209.13, -921.33 222.09 M-933.25 194.5 C-931.12 201.43, -927.86 206.73, -919.38 221.38" stroke="#000000" stroke-width="1" fill="none"></path></g><g transform="translate(2181.023496617922 458.86892283288466) rotate(0 -481.8123265001342 -97.91677928775948)"><path d="M-911.2 191.98 C-914.97 201.63, -916.22 207.83, -921.33 222.09 M-912.88 192.03 C-915.58 199.73, -917.14 205.61, -919.38 221.38" stroke="#000000" stroke-width="1" fill="none"></path></g></g><g transform="translate(1381.0234966179223 10) rotate(0 113.00002034505212 25.934430898864434)"><text x="0" y="37.86886179772884" font-family="Virgil, Segoe UI Emoji" font-size="37.04918699837774px" fill="#000000" text-anchor="start" style="white-space: pre;" direction="ltr">远端玩家退出</text></g><g stroke-linecap="round"><g transform="translate(1605.0237407585475 1424.2024799617895) rotate(0 296.4933404439439 105.58104999032487)"><path d="M0.94 1.07 C91.87 9.85, 451.96 17.46, 545.66 52.24 C639.35 87.02, 560.16 183.43, 563.1 209.74 M-0.03 0.59 C91.27 9.51, 454.08 18.21, 547.84 53.21 C641.6 88.2, 559.89 184.29, 562.56 210.57" stroke="#000000" stroke-width="1" fill="none"></path></g><g transform="translate(1605.0237407585475 1424.2024799617895) rotate(0 296.4933404439439 105.58104999032487)"><path d="M563.79 178.89 C560.25 190.4, 560.69 199.78, 561.59 208.57 M561.03 179.65 C561.9 187.4, 561.34 195.34, 562.68 211.55" stroke="#000000" stroke-width="1" fill="none"></path></g><g transform="translate(1605.0237407585475 1424.2024799617895) rotate(0 296.4933404439439 105.58104999032487)"><path d="M583.2 185.55 C573.78 195.19, 568.33 202.55, 561.59 208.57 M580.44 186.31 C576.44 192.23, 571.01 198.5, 562.68 211.55" stroke="#000000" stroke-width="1" fill="none"></path></g></g><g transform="translate(1690.3569927116725 1391.2024392716853) rotate(0 87.85732160295765 30.00006103515625)"><text x="0" y="44.0001220703125" font-family="Virgil, Segoe UI Emoji" font-size="42.85723005022322px" fill="#000000" text-anchor="start" style="white-space: pre;" direction="ltr">重新匹配</text></g></svg>